<?xml version="1.0" encoding="UTF-8" standalone="no"?>
<!-- Created with Inkscape (http://www.inkscape.org/) -->

<svg
   width="143.73831mm"
   height="47.659134mm"
   viewBox="0 0 143.73831 47.659134"
   version="1.1"
   id="svg6483"
   inkscape:version="1.2.2 (b0a8486541, 2022-12-01)"
   sodipodi:docname="flora-logo.svg"
   xmlns:inkscape="http://www.inkscape.org/namespaces/inkscape"
   xmlns:sodipodi="http://sodipodi.sourceforge.net/DTD/sodipodi-0.dtd"
   xmlns="http://www.w3.org/2000/svg"
   xmlns:svg="http://www.w3.org/2000/svg">
  <sodipodi:namedview
     id="namedview6485"
     pagecolor="#ffffff"
     bordercolor="#000000"
     borderopacity="0.25"
     inkscape:showpageshadow="2"
     inkscape:pageopacity="0.0"
     inkscape:pagecheckerboard="0"
     inkscape:deskcolor="#d1d1d1"
     inkscape:document-units="mm"
     showgrid="false"
     inkscape:zoom="0.78725041"
     inkscape:cx="309.30438"
     inkscape:cy="263.5756"
     inkscape:window-width="1366"
     inkscape:window-height="699"
     inkscape:window-x="0"
     inkscape:window-y="0"
     inkscape:window-maximized="1"
     inkscape:current-layer="layer1" />
  <defs
     id="defs6480" />
  <g
     inkscape:label="Layer 1"
     inkscape:groupmode="layer"
     id="layer1"
     transform="translate(-4.1075906,-85.426248)">
    <g
       id="g7349">
      <path
         style="fill:#275928;fill-opacity:1;stroke-width:0.122125"
         d="m 27.218221,133.01838 c -0.04618,-0.0462 -0.08427,-1.79219 -0.08464,-3.88002 -3.64e-4,-2.2993 -0.05176,-3.98003 -0.130251,-4.26267 -0.14777,-0.53215 -0.831774,-1.34455 -1.386452,-1.64671 -0.299328,-0.16306 -0.846525,-0.21781 -2.695932,-0.26977 -2.560132,-0.0719 -2.692402,-0.10642 -3.61947,-0.94397 -0.669935,-0.60525 -1.074996,-1.45497 -1.198504,-2.51422 -0.127363,-1.09225 -0.249948,-1.4061 -0.741036,-1.89719 -0.822758,-0.82275 -0.701235,-0.8041 -5.676499,-0.87147 -2.485246,-0.0336 -4.628545,-0.11204 -4.762881,-0.1742 -1.133533,-0.52445 -1.645743,-1.46438 -1.647497,-3.02323 -9.23e-4,-0.91837 -0.03102,-1.06983 -0.223942,-1.13106 -0.122512,-0.0389 -0.378238,-0.233 -0.568282,-0.43136 -0.673397,-0.70287 -0.403625,-1.89849 0.514961,-2.2823 0.614854,-0.25691 1.15421,-0.12476 1.610117,0.39449 0.653651,0.74447 0.425545,1.93053 -0.434148,2.25738 -0.273202,0.10387 -0.289274,0.16809 -0.289274,1.15593 0,1.21114 0.234047,1.81511 0.882643,2.27772 0.397338,0.2834 0.426053,0.28543 4.918303,0.34613 4.454017,0.0602 4.526489,0.0652 5.068193,0.34928 0.302258,0.15852 0.70069,0.42985 0.885408,0.60294 l 0.335842,0.31473 v -0.39315 c 0,-0.86141 -0.612593,-1.7672 -1.526563,-2.25718 -0.443999,-0.23803 -0.733272,-0.26782 -3.175255,-0.32699 -3.020368,-0.0732 -3.205815,-0.11703 -4.140367,-0.97847 -0.941486,-0.86782 -1.049952,-1.34095 -1.049952,-4.57986 v -2.7409 l -0.293733,-0.0737 c -1.032202,-0.25907 -1.219011,-1.8988 -0.290418,-2.54921 0.732488,-0.51306 1.903944,-0.0336 2.181517,0.89286 0.177323,0.59186 -0.08989,1.27697 -0.614514,1.57553 l -0.370683,0.21095 0.0018,2.74781 c 0.0018,2.40608 0.02991,2.80942 0.226894,3.24313 0.273073,0.6012 1.128086,1.35916 1.718135,1.52311 0.238127,0.0662 1.463457,0.13369 2.722958,0.15006 l 2.289994,0.0298 -1.2e-4,-0.51473 c -1.2e-4,-0.41061 -0.05574,-0.54321 -0.274932,-0.65545 -0.441036,-0.22586 -0.696587,-0.62883 -0.699504,-1.10302 l -0.0028,-0.44133 -1.150047,-0.0602 c -0.948159,-0.0496 -1.244449,-0.11548 -1.687791,-0.37529 -0.773342,-0.45321 -1.634398,-1.76921 -1.346171,-2.05743 0.182368,-0.18237 0.360772,-0.046 0.632238,0.48335 0.521073,1.01603 1.246728,1.36955 2.784563,1.35656 0.737953,-0.006 1.223239,-0.0756 1.555675,-0.2223 l 0.483159,-0.21324 -1.21591,-0.70892 c -2.384589,-1.39028 -2.491863,-1.59393 -2.495547,-4.73739 l -0.0028,-2.28821 -0.424766,-0.17747 c -0.495252,-0.20693 -0.917699,-0.82947 -0.917699,-1.35237 0,-0.7731 0.79745,-1.527441 1.613326,-1.526106 0.705375,0.0011 1.438891,0.815386 1.438891,1.597226 0,0.48002 -0.383956,1.12436 -0.776613,1.30326 -0.283527,0.12919 -0.297287,0.1954 -0.382485,1.84085 -0.155874,3.01056 0.02414,3.486 1.708659,4.51272 0.604521,0.36846 1.861316,1.08559 2.792877,1.59364 2.804166,1.52929 2.913436,1.71654 3.005372,5.15024 0.06175,2.30641 0.07405,2.39895 0.39046,2.93715 0.516263,0.87815 1.18761,1.17188 2.848552,1.24634 0.817598,0.0366 1.522616,0.13549 1.801343,0.25251 0.251887,0.10576 0.457971,0.15129 0.457971,0.10118 0,-0.23366 -1.005551,-1.01534 -1.831877,-1.42405 -1.288709,-0.6374 -1.646416,-0.94062 -2.005789,-1.70027 -0.312537,-0.66065 -0.314587,-0.68539 -0.314587,-3.79281 0,-2.64152 -0.03079,-3.18858 -0.197914,-3.51866 -0.306753,-0.60577 -0.54327,-0.81828 -0.910748,-0.81828 -0.392395,0 -1.051967,-0.59273 -1.111764,-0.9991 -0.02806,-0.19083 -0.462134,-0.5215 -1.561662,-1.18969 -2.236031,-1.35885 -2.322462,-1.53751 -2.323487,-4.80287 -4.6e-4,-2.08653 0.0085,-2.16772 0.24357,-2.16772 0.234585,0 0.244246,0.08142 0.244246,2.0579 0,2.15515 0.07904,2.61973 0.554906,3.26181 0.249274,0.33635 2.594451,1.88567 2.854294,1.88567 0.05847,0 0.137813,-0.0821 0.176327,-0.18249 0.09809,-0.25562 0.81516,-0.67138 1.158899,-0.67193 1.248742,-0.002 1.959687,1.4966 1.11211,2.34419 -0.336627,0.33662 -0.354282,0.39125 -0.186406,0.57676 0.476027,0.526 0.558252,1.15809 0.558252,4.29138 0,1.84379 0.05086,3.1644 0.129896,3.37362 0.218949,0.57949 0.735474,1.01331 1.946233,1.63459 0.638104,0.32744 1.24676,0.66557 1.352577,0.7514 0.321266,0.2606 0.967798,1.21767 0.967798,1.43263 0,0.11104 0.170681,0.43396 0.379291,0.71762 0.708726,0.96373 0.735621,1.20263 0.703436,6.24925 -0.01606,2.51883 -0.06016,4.87752 -0.098,5.24152 -0.06423,0.61801 -0.215103,0.8609 -0.412264,0.66374 z m -0.114767,-10.24723 c -0.08831,-1.10023 -0.538201,-1.82206 -1.438462,-2.30798 -0.608093,-0.32822 -0.804664,-0.3666 -2.194485,-0.42846 -1.377221,-0.0613 -1.582437,-0.10069 -2.097666,-0.40265 -0.314112,-0.18409 -0.738489,-0.53777 -0.943064,-0.78595 -0.635035,-0.77041 -0.745148,-1.30832 -0.745148,-3.64004 0,-2.04185 -0.0083,-2.1099 -0.335846,-2.756 -0.343537,-0.67764 -1.032517,-1.22662 -1.756913,-1.39994 -0.317988,-0.0761 -0.321173,-0.0702 -0.259553,0.47646 0.05581,0.49509 0.02312,0.59275 -0.309823,0.92568 -0.204713,0.20472 -0.458866,0.37221 -0.564788,0.37221 -0.148365,0 -0.192584,0.13336 -0.192584,0.58082 0,0.52014 0.03609,0.59679 0.345619,0.7338 0.615695,0.27253 1.341669,0.99656 1.667976,1.66351 0.28481,0.58213 0.325747,0.83849 0.384654,2.40883 0.07666,2.04361 0.167297,2.41631 0.742485,3.05297 0.87103,0.96413 1.046221,1.01736 3.576152,1.08663 2.208563,0.0605 2.273654,0.0698 2.897783,0.41485 0.351157,0.19415 0.730632,0.45483 0.843274,0.5793 0.360394,0.39824 0.447844,0.26627 0.380389,-0.57404 z m -10.510359,-10.7007 c 0.46482,-0.43668 0.360665,-1.0902 -0.221751,-1.39138 -0.282368,-0.14602 -0.407238,-0.15331 -0.626357,-0.0366 -0.388928,0.20717 -0.570627,0.48177 -0.575104,0.86917 -0.0085,0.73118 0.871823,1.07681 1.423212,0.5588 z M 6.051203,111.7165 c 0.619379,-0.48721 0.289177,-1.57877 -0.477578,-1.57877 -0.170977,0 -0.445757,0.1349 -0.610628,0.29976 -0.471314,0.47132 -0.366702,1.0539 0.249801,1.3911 0.348272,0.19048 0.475334,0.1735 0.838405,-0.1121 z m 15.265644,-3.90801 c 0.603667,-0.47484 0.270239,-1.45664 -0.494694,-1.45664 -0.386029,0 -0.893276,0.43274 -0.893276,0.76207 0,0.34758 0.227879,0.70418 0.527017,0.82471 0.402064,0.16199 0.510377,0.14562 0.860953,-0.13014 z M 8.882106,105.31934 c 0.469736,-0.46974 0.385448,-1.052 -0.195807,-1.35258 -0.906497,-0.46877 -1.695149,0.76779 -0.892405,1.39923 0.422572,0.3324 0.722001,0.31956 1.088212,-0.0466 z m 4.169363,-3.87378 c 0.593858,-0.5579 0.160942,-1.566339 -0.672418,-1.566339 -0.800445,0 -1.182071,1.085529 -0.555026,1.578759 0.414961,0.32641 0.871694,0.32179 1.227444,-0.0124 z m 16.366684,31.5745 c -0.04711,-0.0471 -0.08564,-3.12024 -0.08564,-6.8292 0,-7.73254 0.02128,-7.54902 -1.006336,-8.6734 -0.506035,-0.55369 -0.760469,-0.71331 -1.745097,-1.09483 -1.385616,-0.53688 -2.014429,-0.9699 -2.424409,-1.66953 -0.32127,-0.54824 -0.522231,-1.42104 -0.400334,-1.73869 0.127104,-0.33124 0.415971,-0.0661 0.499886,0.45877 0.19015,1.18936 0.870272,1.83749 2.522813,2.40415 0.931658,0.31946 1.875949,0.96168 2.16747,1.47411 0.111549,0.19608 0.244035,0.35685 0.294416,0.35728 0.05038,3.6e-4 0.09159,-0.64595 0.09159,-1.43638 0,-1.81695 -0.110299,-2.0074 -1.713977,-2.95936 -1.88421,-1.11848 -2.071901,-1.60926 -2.071901,-5.41772 v -2.47471 l -0.335846,-0.31324 c -0.588739,-0.54911 -0.77433,-0.58728 -2.86191,-0.58853 -1.829407,-0.001 -2.042637,-0.0245 -2.604078,-0.28596 -0.774108,-0.36048 -1.479963,-1.12231 -1.272014,-1.37287 0.119876,-0.14444 0.222867,-0.10075 0.6303,0.26734 0.886525,0.80092 1.257303,0.89849 3.425816,0.9015 1.70577,0.002 1.985521,0.0319 2.423805,0.25546 0.27251,0.13902 0.516684,0.23155 0.54261,0.20563 0.07514,-0.0751 -0.167492,-0.82882 -0.362747,-1.12682 -0.248813,-0.37973 -0.929802,-0.67488 -1.558394,-0.67542 -0.600403,-5e-4 -1.206069,-0.31524 -1.515517,-0.78752 -0.185083,-0.28247 -0.279683,-0.31115 -1.026479,-0.31115 -1.41742,0 -2.182089,-0.40284 -2.64281,-1.39228 -0.262248,-0.563213 -0.290099,-0.789079 -0.291175,-2.361425 l -0.0014,-1.738644 -0.402609,-0.168221 c -0.952387,-0.397932 -1.365127,-1.40773 -0.954662,-2.335651 0.309343,-0.699327 0.848864,-1.039965 1.648119,-1.040577 0.541335,-3.67e-4 0.645231,0.04861 1.129659,0.533037 0.487179,0.487178 0.533494,0.586333 0.533494,1.142129 0,0.724285 -0.348887,1.320145 -0.943696,1.611732 l -0.394134,0.193211 -0.0028,1.770814 c -0.0023,1.448401 0.03628,1.847057 0.210945,2.189571 0.356027,0.698204 0.774066,0.917744 1.839936,0.966274 l 0.938221,0.0427 v -2.606813 c 0,-2.525393 0.0076,-2.60681 0.244252,-2.60681 0.234997,0 0.246565,0.101769 0.305314,2.686752 0.04164,1.832591 0.109898,2.772121 0.214664,2.955271 0.224525,0.39251 0.64298,0.64733 1.064291,0.6481 1.016828,0.002 1.99022,0.61999 2.401285,1.52484 0.197227,0.43414 0.22278,0.86272 0.225762,3.78692 0.0018,1.8822 0.05749,3.49231 0.1295,3.75156 0.178505,0.64274 0.601492,1.09338 1.451506,1.54644 0.40518,0.21595 0.896808,0.52738 1.092508,0.69204 0.195698,0.16468 0.389098,0.2994 0.429776,0.2994 0.04066,0 0.07397,-0.24618 0.07397,-0.54708 0,-0.51206 -0.03019,-0.56248 -0.471693,-0.78772 -1.143276,-0.58325 -1.113088,-2.19901 0.05141,-2.75159 l 0.420292,-0.19944 v -3.94413 c 0,-4.89938 0.08221,-4.64121 -1.83815,-5.771989 -0.701821,-0.41326 -1.484306,-0.935344 -1.738847,-1.160189 -0.691882,-0.611157 -0.807221,-1.081586 -0.818853,-3.33981 l -0.01002,-1.954006 -0.392201,-0.244251 c -0.215712,-0.134337 -0.494537,-0.45375 -0.619609,-0.709808 -0.204146,-0.417948 -0.209947,-0.511417 -0.05673,-0.913997 0.573733,-1.50743 2.787693,-1.193637 2.787693,0.39511 0,0.580013 -0.398031,1.205824 -0.860239,1.352522 -0.223878,0.07106 -0.238888,0.197581 -0.238888,2.013642 0,1.076264 0.05792,2.090674 0.130262,2.281617 0.206559,0.545175 0.581691,0.867338 1.839364,1.579662 0.646699,0.366278 1.273476,0.773872 1.39284,0.905765 0.119358,0.131892 0.263457,0.239812 0.320218,0.239812 0.05675,0 0.103191,-0.592476 0.103191,-1.316607 v -1.316604 l -0.353391,-0.133395 c -0.491167,-0.185394 -0.806788,-0.717096 -0.806788,-1.359137 0,-0.460418 0.0627,-0.591248 0.456175,-0.951841 0.34097,-0.312475 0.566113,-0.418054 0.891472,-0.418054 0.899675,0 1.555814,0.634386 1.54397,1.492776 -0.008,0.578217 -0.262036,1.000416 -0.755575,1.255634 l -0.365226,0.188865 v 3.549353 3.54934 l 0.396908,-0.33456 c 0.218297,-0.18401 0.754121,-0.49464 1.190716,-0.69029 1.606347,-0.71985 1.831877,-1.23107 1.831877,-4.152338 0,-1.811622 0.0192,-1.973749 0.298801,-2.525554 0.212292,-0.418939 0.482217,-0.707353 0.932317,-0.99618 0.928099,-0.595559 1.083229,-1.015588 1.08658,-2.941964 0.0028,-1.538342 0.0014,-1.544124 -0.297139,-1.619107 -0.388692,-0.09755 -0.916014,-0.793541 -0.995405,-1.313783 -0.08661,-0.567524 0.374545,-1.421079 0.928851,-1.719213 1.07494,-0.578163 2.4425,0.314479 2.4425,1.594284 0,0.477441 -0.462443,1.136102 -0.979436,1.395019 l -0.425004,0.212845 -0.06531,1.680094 c -0.07745,1.992471 -0.227105,2.377412 -1.220451,3.139429 -1.163299,0.89239 -1.1482,0.847916 -1.217797,3.587046 -0.05616,2.210612 -0.08277,2.438152 -0.331905,2.838722 -0.382563,0.61511 -0.600786,0.78681 -1.822788,1.43414 -0.954788,0.50578 -1.120489,0.64442 -1.414539,1.18351 -0.317288,0.5817 -0.333203,0.69178 -0.335921,2.32314 l -0.0028,1.71251 0.412906,0.22237 c 0.518853,0.27942 0.750411,0.70499 0.736172,1.35298 -0.0131,0.59539 -0.315298,1.10843 -0.800838,1.35951 l -0.34824,0.18008 v 1.95087 c 0,1.07298 0.02663,1.95087 0.05923,1.95087 0.03258,0 0.327173,-0.16487 0.654661,-0.36638 0.327492,-0.2015 0.64777,-0.36637 0.71174,-0.36637 0.150348,0 0.694841,-0.58436 0.910356,-0.977 0.128406,-0.23395 0.18185,-1.23315 0.228641,-4.27438 0.05261,-3.41951 0.08643,-3.96907 0.244251,-3.96907 0.284363,0 0.333757,7.54456 0.05489,8.38416 -0.217757,0.6556 -0.734052,1.16975 -1.631115,1.62432 -0.324616,0.1645 -0.734758,0.47087 -0.91143,0.68083 -0.313714,0.37283 -0.32122,0.42208 -0.32122,2.10756 v 1.72581 l 0.519032,-0.49838 c 0.285466,-0.27411 0.903723,-0.69893 1.373907,-0.94404 1.496791,-0.7803 3.150001,-1.83425 3.389138,-2.16063 0.127294,-0.17374 0.259831,-0.53096 0.294528,-0.79382 0.05692,-0.43124 0.02756,-0.49869 -0.300509,-0.69043 -0.847512,-0.49532 -0.908117,-1.81521 -0.114002,-2.48287 l 0.394602,-0.33177 0.06106,-3.12718 c 0.05918,-3.03065 0.07048,-3.14603 0.366375,-3.73781 0.193456,-0.38691 0.517841,-0.76714 0.885408,-1.03784 l 0.580094,-0.42721 v -2.33919 -2.33918 l -0.363728,-0.12681 c -0.891131,-0.310648 -1.095992,-1.546838 -0.375709,-2.267123 0.319498,-0.319497 0.470106,-0.37778 0.976218,-0.37778 0.463399,0 0.668754,0.06606 0.910047,0.29274 0.385384,0.36205 0.612768,1.017027 0.504783,1.454029 -0.09316,0.377016 -0.64212,1.001044 -0.880625,1.001044 -0.126625,0 -0.160338,0.47782 -0.160338,2.27238 0,1.87585 0.02927,2.26116 0.167607,2.20807 0.09219,-0.0354 0.571836,-0.1847 1.065894,-0.33184 0.664003,-0.19775 1.015087,-0.38433 1.346156,-0.7154 0.737607,-0.73761 0.839845,-1.3053 0.839845,-4.663386 v -2.895597 l -0.291706,-0.07321 c -0.160439,-0.04026 -0.449089,-0.252463 -0.641447,-0.471548 -0.283938,-0.323388 -0.380799,-0.600764 -0.514803,-1.474246 -0.09079,-0.591752 -0.132865,-1.108109 -0.09351,-1.147462 0.03937,-0.03935 0.306106,0.04456 0.592791,0.186472 0.286684,0.141909 0.735599,0.291507 0.997588,0.332437 0.591113,0.09235 1.103494,0.58235 1.282275,1.226268 0.224482,0.808519 0.177822,1.011645 -0.282821,1.231311 l -0.417139,0.19892 -0.04085,3.188076 -0.0408,3.188075 -0.366375,0.73274 c -0.508458,1.01689 -1.079782,1.41165 -2.836888,1.96017 -1.616017,0.50448 -2.21805,0.95169 -2.461466,1.82848 -0.08046,0.28978 -0.135131,1.62888 -0.135537,3.31942 l -9.24e-4,2.83368 0.429843,0.20397 c 0.781017,0.37062 1.164809,1.21598 0.871145,1.91882 -0.177928,0.42584 -0.844295,1.06392 -1.11109,1.06392 -0.09216,0 -0.185475,0.20679 -0.224455,0.49743 -0.09659,0.72008 -0.637934,1.4146 -1.602058,2.05535 l -0.844752,0.56142 1.759713,0.035 1.759719,0.035 0.781696,-0.40141 c 0.662162,-0.34003 0.839362,-0.50412 1.158771,-1.0731 0.375011,-0.66801 0.377416,-0.68405 0.439553,-2.931 0.06003,-2.1705 0.07522,-2.28092 0.386704,-2.80888 0.178321,-0.30226 0.453101,-0.66419 0.610627,-0.8043 0.157522,-0.14011 1.550394,-0.92697 3.095278,-1.74857 1.647297,-0.87607 2.940303,-1.6437 3.126683,-1.85623 0.472639,-0.5389 0.598183,-1.13311 0.598183,-2.83102 v -1.53297 l -0.4304,-0.266 c -0.867803,-0.53633 -1.03156,-1.62115 -0.351817,-2.33065 0.448937,-0.46859 1.009497,-0.56543 1.593367,-0.27527 1.162288,0.57761 1.251109,1.96228 0.165826,2.58514 l -0.345444,0.19826 -0.04301,1.83565 c -0.03734,1.59325 -0.07764,1.90015 -0.305064,2.32414 -0.398857,0.74359 -0.938092,1.17742 -2.573278,2.07025 -0.822818,0.44926 -1.495956,0.85421 -1.495864,0.89986 9.3e-5,0.0457 0.975568,0.0798 2.167719,0.0759 1.763754,-0.006 2.238118,-0.0445 2.546331,-0.20748 0.509898,-0.26965 1.089853,-0.94952 1.266452,-1.48463 0.148414,-0.4497 0.444635,-0.58121 0.57048,-0.25327 0.109772,0.28606 -0.533947,1.48007 -1.009092,1.87172 -0.684779,0.56446 -1.117626,0.63029 -4.151791,0.63154 l -2.794709,9.2e-4 -0.640999,0.36761 c -0.681082,0.3906 -1.204523,1.04779 -1.311926,1.64716 -0.03591,0.20041 -0.08297,1.24368 -0.104566,2.31838 -0.04491,2.23486 -0.151766,2.61857 -0.958821,3.44294 -0.923109,0.94291 -1.376617,1.06229 -4.311201,1.13487 -2.112708,0.0523 -2.650706,0.10218 -3.053126,0.28338 -0.652341,0.29373 -1.115056,0.75089 -1.507422,1.48932 l -0.324456,0.61063 -0.06106,5.31086 c -0.05365,4.66641 -0.08401,5.31527 -0.250206,5.3472 -0.104028,0.02 -0.227681,-0.002 -0.27478,-0.0493 z M 36.47136,115.5575 c 0.292246,-0.11215 0.571823,-0.73067 0.485582,-1.07429 -0.188711,-0.75187 -1.096726,-0.97337 -1.598564,-0.38996 -0.368051,0.42789 -0.363219,0.86336 0.0138,1.24035 0.292865,0.29287 0.702199,0.37625 1.099204,0.2239 z m -6.217358,-3.88765 c 0.164869,-0.16487 0.299765,-0.43224 0.299765,-0.59416 0,-0.38595 -0.405005,-0.89052 -0.792936,-0.98789 -0.354743,-0.089 -0.97097,0.18515 -1.085205,0.48284 -0.254499,0.6632 0.219446,1.39897 0.901138,1.39897 0.237947,0 0.488282,-0.1108 0.677238,-0.29976 z m 17.857663,-9.04907 c 0.626294,-0.43868 0.602268,-1.20866 -0.04695,-1.50446 -0.440352,-0.20064 -0.667608,-0.17123 -0.985662,0.12757 -0.399576,0.37538 -0.381492,0.98236 0.03914,1.31322 0.384275,0.30227 0.630304,0.31804 0.993476,0.0637 z m -9.941551,-3.238922 c 0.404889,-0.318486 0.42926,-0.858491 0.0545,-1.207629 -0.54434,-0.50713 -1.44463,-0.14758 -1.440604,0.575336 0.0023,0.393971 0.09225,0.550466 0.425567,0.739474 0.358713,0.203414 0.599882,0.176503 0.960529,-0.107181 z m -7.916112,-2.7334 c 0.164869,-0.16487 0.299765,-0.414671 0.299765,-0.555115 0,-0.381272 -0.535553,-0.854875 -0.966696,-0.854875 -0.791809,0 -1.155577,0.9751 -0.543398,1.456637 0.426855,0.335767 0.843989,0.319691 1.210329,-0.04665 z M 19.165596,95.052593 c 0.421032,-0.484565 0.376942,-1.171953 -0.100967,-1.574084 -0.700764,-0.589653 -1.672176,-0.285965 -1.892435,0.591623 -0.276521,1.101746 1.240226,1.849286 1.9934,0.982461 z m 22.975625,0.319503 c 0.240467,-0.152301 0.07956,-0.886915 -0.26222,-1.197195 -0.150105,-0.136265 -0.437781,-0.285055 -0.639287,-0.330644 -0.20151,-0.04559 -0.465937,-0.112535 -0.587622,-0.14877 -0.195334,-0.05817 -0.211965,-0.01101 -0.141995,0.402704 0.134983,0.798101 0.190064,0.905687 0.587862,1.148246 0.41528,0.253219 0.773693,0.296388 1.043262,0.125659 z M 25.588482,92.538248 c 0.83246,-0.379295 0.538962,-1.57416 -0.386667,-1.57416 -0.332921,0 -0.729131,0.365009 -0.821862,0.757137 -0.06022,0.254688 -0.0071,0.400558 0.233492,0.641157 0.343989,0.343988 0.53173,0.377852 0.975037,0.175866 z M 36.812676,90.46411 c 0.382138,-0.408202 0.409136,-0.591671 0.158417,-1.076511 -0.399654,-0.772845 -1.405021,-0.767305 -1.829194,0.01009 -0.204603,0.374971 -0.215317,0.481641 -0.08096,0.805994 0.174093,0.420299 0.801276,0.787567 1.171649,0.686101 0.134337,-0.0368 0.39538,-0.228351 0.580093,-0.425663 z m -5.22757,42.47648 c -0.03688,-0.0961 -0.05044,-1.95494 -0.03014,-4.13075 0.03462,-3.71112 0.05267,-3.99014 0.291895,-4.50696 0.307945,-0.66528 0.879205,-1.258 1.560444,-1.61905 0.457887,-0.24268 0.738123,-0.27357 3.008487,-0.33163 2.747411,-0.0703 2.893998,-0.10578 3.619549,-0.87694 0.788827,-0.83842 1.037497,-1.80529 0.778354,-3.02641 -0.139534,-0.65752 -0.128365,-0.82085 0.118998,-1.74003 0.32381,-1.20322 0.475419,-1.51814 0.937294,-1.94692 0.608051,-0.56449 1.052691,-0.71617 2.099434,-0.71617 h 0.971001 l 0.255728,-0.43342 c 0.300443,-0.50922 0.973069,-0.8377 1.485067,-0.72524 0.449279,0.0987 0.958548,0.5018 1.098304,0.86939 0.100898,0.26539 0.178995,0.28927 0.945718,0.28927 1.265698,0 2.055814,-0.28037 2.719942,-0.96515 0.732502,-0.75529 0.859605,-1.25333 0.886285,-3.4728 0.02105,-1.7512 0.01435,-1.80298 -0.241547,-1.86718 -0.625453,-0.15692 -1.051515,-0.99665 -0.884775,-1.74382 0.148558,-0.66572 0.594291,-1.0188 1.367043,-1.08288 0.598432,-0.0496 0.700911,-0.0205 1.061682,0.30186 0.328236,0.29328 0.410129,0.46927 0.460039,0.98871 0.06989,0.72732 -0.121446,1.11941 -0.725531,1.48677 l -0.375908,0.22861 -0.01781,1.87222 c -0.01547,1.62713 -0.05359,1.96174 -0.291,2.55594 -0.576517,1.4429 -1.793322,2.20255 -3.662947,2.28678 -1.11223,0.0501 -1.137768,0.0581 -1.320959,0.41233 -0.476788,0.92201 -2.068503,0.91062 -2.548832,-0.0182 -0.21286,-0.41162 -0.483242,-0.47084 -1.629624,-0.35691 -0.825901,0.0821 -1.313809,0.40351 -1.681841,1.10797 -0.281636,0.53909 -0.220177,0.67873 0.340438,0.77345 0.763414,0.12897 1.197027,0.61592 1.197027,1.34425 0,0.50632 -0.05725,0.63058 -0.489884,1.06321 -0.429865,0.42986 -0.540966,0.4816 -0.906755,0.42224 -0.409325,-0.0664 -0.418353,-0.0584 -0.499259,0.44222 -0.186472,1.15391 -0.975418,2.29337 -1.94271,2.80582 -0.445498,0.23602 -0.749206,0.27014 -2.939334,0.33019 -2.651852,0.0727 -2.994719,0.14838 -3.644561,0.80425 -0.752331,0.75931 -0.746474,0.722 -0.813005,5.17786 -0.05632,3.77247 -0.07766,4.09281 -0.27515,4.13075 -0.117752,0.0226 -0.244261,-0.0375 -0.281136,-0.1336 z M 42.58864,118.50885 c 0.365707,-0.3657 0.385083,-0.83616 0.04831,-1.17294 -0.347197,-0.34719 -0.93235,-0.27603 -1.250541,0.15208 -0.211287,0.28428 -0.223966,0.37604 -0.09498,0.68744 0.263734,0.63671 0.844618,0.78602 1.297211,0.33342 z m 4.424841,-3.5541 c 0.5707,-0.39974 0.180891,-1.51964 -0.528947,-1.51964 -0.429957,0 -0.909382,0.45536 -0.909382,0.86374 0,0.71316 0.821646,1.08784 1.438329,0.6559 z m 6.286087,-7.96458 c 0.293178,-0.25744 0.276442,-0.94197 -0.03051,-1.24894 -0.363648,-0.36365 -1.017354,-0.32567 -1.334512,0.0775 -0.304256,0.3868 -0.318058,0.63027 -0.05685,1.00319 0.361224,0.51572 0.947217,0.58504 1.421901,0.16822 z m -16.318869,4.54801 c -0.137734,-0.35893 -0.08012,-1.58798 0.103249,-2.20263 0.377633,-1.26576 1.154607,-1.83188 3.330612,-2.42676 1.590472,-0.4348 2.243601,-0.84021 2.65199,-1.64612 0.289694,-0.57168 0.310349,-0.72958 0.310349,-2.37237 0,-1.79071 0.09043,-2.15798 0.473091,-1.92148 0.123545,0.0764 0.149907,0.53676 0.116718,2.03861 -0.04762,2.15536 -0.11736,2.39766 -0.939106,3.26289 -0.584368,0.6153 -0.801831,0.71966 -2.592642,1.24436 -2.32903,0.68238 -2.814288,1.18926 -2.9192,3.04926 -0.0499,0.88467 -0.100451,1.10524 -0.260277,1.13566 -0.109095,0.0208 -0.232749,-0.0519 -0.274784,-0.16142 z m 7.727107,-11.938465 c -0.465748,-0.313713 -1.023727,-1.221953 -0.918756,-1.495494 0.08088,-0.210776 0.561465,-0.229446 1.21746,-0.04729 0.586057,0.162732 0.665037,0.09042 0.345272,-0.316096 -0.642711,-0.81707 -0.635838,-1.919828 0.01722,-2.759622 0.391098,-0.502945 0.99426,-0.94937 1.116943,-0.826689 0.167187,0.167186 0.570133,2.539403 0.515842,3.036843 -0.0574,0.525909 -0.05156,0.538188 0.142175,0.298683 0.111124,-0.137375 0.292967,-0.384182 0.40411,-0.548458 0.158047,-0.233616 0.235093,-0.266868 0.353654,-0.15264 0.119612,0.115246 0.0144,0.304412 -0.498991,0.897008 -0.557541,0.643578 -0.630299,0.783421 -0.508813,0.977951 0.188037,0.301095 -0.07279,0.482207 -0.282138,0.195908 -0.198874,-0.271979 -0.303855,-0.254083 -0.303855,0.0518 0,0.319304 -0.636198,0.967605 -0.949543,0.967605 -0.129573,0 -0.422318,-0.125778 -0.650553,-0.279506 z M 35.33793,87.017682 c -0.696338,-0.741219 0.0023,-1.863269 0.953724,-1.531618 0.688048,0.239854 0.851967,1.119769 0.290835,1.561156 -0.424289,0.333745 -0.914192,0.322118 -1.244559,-0.02953 z"
         id="path4895"
         sodipodi:nodetypes="ccssssssscccssssssssccssssscsssscccssccsccsssssscsccsscsscsssssssssscscscssssssscssscscssccsssssscssssssssssssssssssssscssssssssssssssscssssscsscssscscssscssscsssccsscssscccscsscscscssssssscsscscsscsssssssscsssscscccssscsccsssscssssssccscscssssssssssscsssscscssscccssssssssssscssscsssscccsssccssssscccsssssscscsssscsssssssssccssssssscsscccsscccssscsscsssccsscssssssssssssssssssssssssssssssccsssssssscssssssssssssccssssssssssssssssccsssssssssccssccsssssssssssscssscssssscssssccscsss" />
      <path
         style="fill:#2a5d2a;fill-opacity:1;stroke-width:0.219318"
         d="m 93.953423,126.16577 c -1.90592,-0.61619 -2.96981,-1.25341 -4.35395,-2.60779 -2.06111,-2.0168 -3.03541,-4.30379 -3.24439,-7.61556 -0.14806,-2.34656 0.24219,-4.304 1.27724,-6.40649 0.82951,-1.68498 3.02243,-3.83052 4.70016,-4.59861 4.39492,-2.01206 9.895207,-1.19618 13.031897,1.9331 1.30837,1.30528 2.02053,2.53476 2.62937,4.53937 0.67182,2.21197 0.54774,5.77702 -0.27823,7.99478 -1.27605,3.42623 -3.82091,5.77747 -7.38685,6.82489 -1.618487,0.47538 -4.806377,0.44355 -6.375247,-0.0637 z m 5.56675,-0.92186 c 1.201827,-0.3337 2.815117,-1.923 3.490057,-3.43817 1.21735,-2.73275 1.33694,-7.79927 0.26429,-11.19483 -1.14347,-3.61972 -3.469627,-5.66619 -6.370967,-5.60492 -1.57008,0.0332 -3.23369,0.77815 -4.13831,1.85322 -1.97076,2.34211 -2.59578,6.44083 -1.66794,10.93777 1.15648,5.60514 4.4784,8.54215 8.42287,7.44693 z m 31.223437,1.03596 c -1.22119,-0.45573 -2.29951,-1.36407 -2.84899,-2.39988 -0.69261,-1.3056 -0.67528,-3.80675 0.0359,-5.1961 1.09101,-2.13105 2.52806,-3.02502 7.57235,-4.71065 2.04443,-0.68317 3.90783,-1.34419 4.14088,-1.46892 0.38495,-0.20601 0.41398,-0.41398 0.31688,-2.27027 -0.082,-1.5669 -0.2293,-2.28775 -0.63181,-3.09082 -0.71812,-1.43286 -1.38077,-1.86014 -3.09864,-1.99803 -1.66203,-0.13341 -2.73866,0.16178 -3.4801,0.95417 -0.47768,0.51051 -0.52117,0.72771 -0.47598,2.37676 0.0598,2.18238 -0.25368,2.64128 -1.80429,2.64128 -1.14325,0 -1.79782,-0.51977 -1.99795,-1.5865 -0.61997,-3.30472 4.3993,-6.28031 9.40069,-5.57301 2.93629,0.41524 4.55158,1.45106 5.51772,3.5383 0.43323,0.93596 0.45956,1.38323 0.48769,8.28191 0.0253,6.18972 0.0813,7.37116 0.37043,7.81251 0.49469,0.75498 1.32846,0.8329 2.46215,0.23011 1.01486,-0.5396 1.37896,-0.40728 0.97195,0.35323 -0.347,0.64837 -2.39484,1.90173 -3.60517,2.20649 -2.00635,0.5052 -3.67187,-0.56146 -3.96885,-2.5418 l -0.14757,-0.98407 -1.09504,0.98454 c -1.66044,1.49288 -3.98657,2.55915 -5.80943,2.66297 -0.93948,0.0535 -1.79407,-0.0286 -2.31291,-0.22223 z m 6.19002,-2.49462 c 0.53941,-0.19239 1.45233,-0.7909 2.02869,-1.33002 l 1.04793,-0.98022 v -3.91772 c 0,-2.15475 -0.0799,-3.91772 -0.17758,-3.91772 -0.0977,0 -1.20798,0.40966 -2.46733,0.91035 -4.33535,1.72364 -5.70716,3.02069 -5.86811,5.54835 -0.0676,1.0607 0.0121,1.55719 0.35902,2.23712 0.53812,1.05482 0.87818,1.35531 1.95619,1.72858 0.90803,0.31442 1.64186,0.24889 3.12119,-0.27872 z m -80.483649,1.83736 c 0,-0.19943 0.408723,-0.34682 1.229313,-0.44326 1.52,-0.17864 1.967169,-0.41036 2.510012,-1.30064 0.402995,-0.66093 0.42613,-1.17123 0.426901,-9.41669 l 7.99e-4,-8.71791 h -2.302818 -2.302846 v -0.65796 -0.65795 h 2.269357 2.269369 l 0.138736,-2.57699 c 0.07635,-1.41734 0.27371,-3.070455 0.438673,-3.673577 1.02835,-3.759838 3.697453,-5.991895 7.423058,-6.207563 2.154805,-0.124745 3.745295,0.206748 5.093115,1.061505 0.99182,0.629001 1.06237,0.640987 2.53984,0.431437 0.83583,-0.118535 2.36479,-0.496175 3.3977,-0.839199 1.35926,-0.451396 1.93449,-0.55564 2.08242,-0.377382 0.1233,0.148567 0.17791,6.029801 0.13761,14.822279 -0.0367,8.01679 0.0151,15.11879 0.1153,15.78223 0.22807,1.51062 0.85537,2.12038 2.39097,2.32408 0.708833,0.094 1.092513,0.25054 1.092513,0.44565 0,0.24673 -0.984393,0.30073 -5.482963,0.30073 -4.52796,0 -5.48296,-0.053 -5.48296,-0.30408 0,-0.19349 0.36912,-0.35943 1.01497,-0.45628 2.44067,-0.366 2.27481,0.7624 2.27481,-15.47518 V 95.841049 l -0.64109,-0.641085 c -0.85553,-0.855529 -2.15425,-0.89627 -2.95772,-0.09279 -0.38116,0.381155 -0.78825,0.548298 -1.33544,0.548298 -0.66186,0 -0.97564,-0.19003 -1.97166,-1.194025 -1.378532,-1.389602 -2.303879,-1.687722 -3.713515,-1.196396 -1.826914,0.636775 -2.320362,2.243454 -2.320362,7.555199 v 3.60795 h 3.289775 3.289772 v 0.65796 0.65795 H 68.107991 64.85236 l -0.124347,3.12529 c -0.06839,1.71891 -0.09773,5.59516 -0.06523,8.6139 0.06532,6.06451 0.167475,6.57526 1.447069,7.23696 0.363232,0.18784 1.299149,0.40117 2.079809,0.47407 0.982966,0.0918 1.419392,0.22394 1.419392,0.4298 0,0.24354 -1.189259,0.29727 -6.579549,0.29727 -5.406746,0 -6.579552,-0.0533 -6.579552,-0.29878 z m 53.075039,-0.0302 c 0,-0.19459 0.20158,-0.32947 0.49346,-0.3302 0.27141,-6.5e-4 0.86341,-0.10396 1.31555,-0.22952 1.49195,-0.41434 1.50477,-0.49848 1.43382,-9.4062 l -0.0627,-7.87369 -0.53169,-0.56571 c -0.42902,-0.45646 -0.73608,-0.5657 -1.59006,-0.5657 -0.91214,0 -1.05835,-0.0606 -1.05835,-0.43864 0,-0.32978 0.14621,-0.43864 0.58912,-0.43864 0.87056,0 3.75057,-0.84942 4.97086,-1.46609 1.5643,-0.7905 1.67752,-0.66982 1.67752,1.78818 0,1.14973 0.0442,2.09041 0.0982,2.09041 0.0541,0 0.96694,-0.87639 2.02869,-1.94753 1.74603,-1.76147 2.04259,-1.97123 3.10414,-2.19564 1.51329,-0.31991 2.65753,-0.027 3.416,0.87437 0.76733,0.91193 0.76596,2.11823 -0.003,3.03265 -0.81895,0.97328 -1.645,0.91473 -2.85704,-0.20249 -1.05785,-0.97509 -2.00522,-1.14271 -3.14049,-0.55565 -0.76385,0.39501 -2.39425,2.21412 -2.55365,2.84924 -0.0644,0.25627 -0.0868,3.42267 -0.0498,7.03647 0.0609,5.96859 0.10434,6.6254 0.47348,7.16956 0.42314,0.62381 1.49821,1.04249 2.68237,1.04462 0.45434,8e-4 0.67624,0.10918 0.67624,0.3302 0,0.28378 -0.76356,0.32899 -5.55607,0.32899 -4.79251,0 -5.55606,-0.0452 -5.55606,-0.32899 z"
         id="path4895-3"
         sodipodi:nodetypes="sssssssssssssssssscssssssssssssssssssscssccsscsssscsscsssccccccccssssssscsssssscsssssscccccccscsssscccssscsssssssssscssscsssscc" />
    </g>
  </g>
</svg>
