<?xml version="1.0" encoding="UTF-8" standalone="no"?>
<!-- Created with Inkscape (http://www.inkscape.org/) -->

<svg
   width="91.834557mm"
   height="34.622307mm"
   viewBox="0 0 91.834557 34.622307"
   version="1.1"
   id="svg3983"
   inkscape:version="1.2.2 (b0a8486541, 2022-12-01)"
   sodipodi:docname="flora-text-only.svg"
   xmlns:inkscape="http://www.inkscape.org/namespaces/inkscape"
   xmlns:sodipodi="http://sodipodi.sourceforge.net/DTD/sodipodi-0.dtd"
   xmlns="http://www.w3.org/2000/svg"
   xmlns:svg="http://www.w3.org/2000/svg">
  <sodipodi:namedview
     id="namedview3985"
     pagecolor="#ffffff"
     bordercolor="#000000"
     borderopacity="0.25"
     inkscape:showpageshadow="2"
     inkscape:pageopacity="0.0"
     inkscape:pagecheckerboard="0"
     inkscape:deskcolor="#d1d1d1"
     inkscape:document-units="mm"
     showgrid="false"
     inkscape:zoom="0.42137346"
     inkscape:cx="155.44406"
     inkscape:cy="70.009156"
     inkscape:window-width="1366"
     inkscape:window-height="699"
     inkscape:window-x="0"
     inkscape:window-y="0"
     inkscape:window-maximized="1"
     inkscape:current-layer="g7349" />
  <defs
     id="defs3980" />
  <g
     inkscape:label="Layer 1"
     inkscape:groupmode="layer"
     id="layer1"
     transform="translate(-64.802041,-130.87489)">
    <g
       id="g7349"
       transform="translate(8.7906988,38.930232)">
      <path
         style="fill:#2a5d2a;fill-opacity:1;stroke-width:0.219318"
         d="m 93.953423,126.16577 c -1.90592,-0.61619 -2.96981,-1.25341 -4.35395,-2.60779 -2.06111,-2.0168 -3.03541,-4.30379 -3.24439,-7.61556 -0.14806,-2.34656 0.24219,-4.304 1.27724,-6.40649 0.82951,-1.68498 3.02243,-3.83052 4.70016,-4.59861 4.39492,-2.01206 9.895207,-1.19618 13.031897,1.9331 1.30837,1.30528 2.02053,2.53476 2.62937,4.53937 0.67182,2.21197 0.54774,5.77702 -0.27823,7.99478 -1.27605,3.42623 -3.82091,5.77747 -7.38685,6.82489 -1.618487,0.47538 -4.806377,0.44355 -6.375247,-0.0637 z m 5.56675,-0.92186 c 1.201827,-0.3337 2.815117,-1.923 3.490057,-3.43817 1.21735,-2.73275 1.33694,-7.79927 0.26429,-11.19483 -1.14347,-3.61972 -3.469627,-5.66619 -6.370967,-5.60492 -1.57008,0.0332 -3.23369,0.77815 -4.13831,1.85322 -1.97076,2.34211 -2.59578,6.44083 -1.66794,10.93777 1.15648,5.60514 4.4784,8.54215 8.42287,7.44693 z m 31.223437,1.03596 c -1.22119,-0.45573 -2.29951,-1.36407 -2.84899,-2.39988 -0.69261,-1.3056 -0.67528,-3.80675 0.0359,-5.1961 1.09101,-2.13105 2.52806,-3.02502 7.57235,-4.71065 2.04443,-0.68317 3.90783,-1.34419 4.14088,-1.46892 0.38495,-0.20601 0.41398,-0.41398 0.31688,-2.27027 -0.082,-1.5669 -0.2293,-2.28775 -0.63181,-3.09082 -0.71812,-1.43286 -1.38077,-1.86014 -3.09864,-1.99803 -1.66203,-0.13341 -2.73866,0.16178 -3.4801,0.95417 -0.47768,0.51051 -0.52117,0.72771 -0.47598,2.37676 0.0598,2.18238 -0.25368,2.64128 -1.80429,2.64128 -1.14325,0 -1.79782,-0.51977 -1.99795,-1.5865 -0.61997,-3.30472 4.3993,-6.28031 9.40069,-5.57301 2.93629,0.41524 4.55158,1.45106 5.51772,3.5383 0.43323,0.93596 0.45956,1.38323 0.48769,8.28191 0.0253,6.18972 0.0813,7.37116 0.37043,7.81251 0.49469,0.75498 1.32846,0.8329 2.46215,0.23011 1.01486,-0.5396 1.37896,-0.40728 0.97195,0.35323 -0.347,0.64837 -2.39484,1.90173 -3.60517,2.20649 -2.00635,0.5052 -3.67187,-0.56146 -3.96885,-2.5418 l -0.14757,-0.98407 -1.09504,0.98454 c -1.66044,1.49288 -3.98657,2.55915 -5.80943,2.66297 -0.93948,0.0535 -1.79407,-0.0286 -2.31291,-0.22223 z m 6.19002,-2.49462 c 0.53941,-0.19239 1.45233,-0.7909 2.02869,-1.33002 l 1.04793,-0.98022 v -3.91772 c 0,-2.15475 -0.0799,-3.91772 -0.17758,-3.91772 -0.0977,0 -1.20798,0.40966 -2.46733,0.91035 -4.33535,1.72364 -5.70716,3.02069 -5.86811,5.54835 -0.0676,1.0607 0.0121,1.55719 0.35902,2.23712 0.53812,1.05482 0.87818,1.35531 1.95619,1.72858 0.90803,0.31442 1.64186,0.24889 3.12119,-0.27872 z m -80.483649,1.83736 c 0,-0.19943 0.408723,-0.34682 1.229313,-0.44326 1.52,-0.17864 1.967169,-0.41036 2.510012,-1.30064 0.402995,-0.66093 0.42613,-1.17123 0.426901,-9.41669 l 7.99e-4,-8.71791 h -2.302818 -2.302846 v -0.65796 -0.65795 h 2.269357 2.269369 l 0.138736,-2.57699 c 0.07635,-1.41734 0.27371,-3.070455 0.438673,-3.673577 1.02835,-3.759838 3.697453,-5.991895 7.423058,-6.207563 2.154805,-0.124745 3.745295,0.206748 5.093115,1.061505 0.99182,0.629001 1.06237,0.640987 2.53984,0.431437 0.83583,-0.118535 2.36479,-0.496175 3.3977,-0.839199 1.35926,-0.451396 1.93449,-0.55564 2.08242,-0.377382 0.1233,0.148567 0.17791,6.029801 0.13761,14.822279 -0.0367,8.01679 0.0151,15.11879 0.1153,15.78223 0.22807,1.51062 0.85537,2.12038 2.39097,2.32408 0.708833,0.094 1.092513,0.25054 1.092513,0.44565 0,0.24673 -0.984393,0.30073 -5.482963,0.30073 -4.52796,0 -5.48296,-0.053 -5.48296,-0.30408 0,-0.19349 0.36912,-0.35943 1.01497,-0.45628 2.44067,-0.366 2.27481,0.7624 2.27481,-15.47518 V 95.841049 l -0.64109,-0.641085 c -0.85553,-0.855529 -2.15425,-0.89627 -2.95772,-0.09279 -0.38116,0.381155 -0.78825,0.548298 -1.33544,0.548298 -0.66186,0 -0.97564,-0.19003 -1.97166,-1.194025 -1.378532,-1.389602 -2.303879,-1.687722 -3.713515,-1.196396 -1.826914,0.636775 -2.320362,2.243454 -2.320362,7.555199 v 3.60795 h 3.289775 3.289772 v 0.65796 0.65795 H 68.107991 64.85236 l -0.124347,3.12529 c -0.06839,1.71891 -0.09773,5.59516 -0.06523,8.6139 0.06532,6.06451 0.167475,6.57526 1.447069,7.23696 0.363232,0.18784 1.299149,0.40117 2.079809,0.47407 0.982966,0.0918 1.419392,0.22394 1.419392,0.4298 0,0.24354 -1.189259,0.29727 -6.579549,0.29727 -5.406746,0 -6.579552,-0.0533 -6.579552,-0.29878 z m 53.075039,-0.0302 c 0,-0.19459 0.20158,-0.32947 0.49346,-0.3302 0.27141,-6.5e-4 0.86341,-0.10396 1.31555,-0.22952 1.49195,-0.41434 1.50477,-0.49848 1.43382,-9.4062 l -0.0627,-7.87369 -0.53169,-0.56571 c -0.42902,-0.45646 -0.73608,-0.5657 -1.59006,-0.5657 -0.91214,0 -1.05835,-0.0606 -1.05835,-0.43864 0,-0.32978 0.14621,-0.43864 0.58912,-0.43864 0.87056,0 3.75057,-0.84942 4.97086,-1.46609 1.5643,-0.7905 1.67752,-0.66982 1.67752,1.78818 0,1.14973 0.0442,2.09041 0.0982,2.09041 0.0541,0 0.96694,-0.87639 2.02869,-1.94753 1.74603,-1.76147 2.04259,-1.97123 3.10414,-2.19564 1.51329,-0.31991 2.65753,-0.027 3.416,0.87437 0.76733,0.91193 0.76596,2.11823 -0.003,3.03265 -0.81895,0.97328 -1.645,0.91473 -2.85704,-0.20249 -1.05785,-0.97509 -2.00522,-1.14271 -3.14049,-0.55565 -0.76385,0.39501 -2.39425,2.21412 -2.55365,2.84924 -0.0644,0.25627 -0.0868,3.42267 -0.0498,7.03647 0.0609,5.96859 0.10434,6.6254 0.47348,7.16956 0.42314,0.62381 1.49821,1.04249 2.68237,1.04462 0.45434,8e-4 0.67624,0.10918 0.67624,0.3302 0,0.28378 -0.76356,0.32899 -5.55607,0.32899 -4.79251,0 -5.55606,-0.0452 -5.55606,-0.32899 z"
         id="path4895-3"
         sodipodi:nodetypes="sssssssssssssssssscssssssssssssssssssscssccsscsssscsscsssccccccccssssssscsssssscsssssscccccccscsssscccssscsssssssssscssscsssscc" />
    </g>
  </g>
</svg>
